<?xml version="1.0" encoding="UTF-8"?>
<!-- Generator: Adobe Illustrator 24.0.1, SVG Export Plug-In . SVG Version: 6.00 Build 0)  -->
<svg version="1.1" id="Camada_1" xmlns="http://www.w3.org/2000/svg" xmlns:xlink="http://www.w3.org/1999/xlink" x="0px" y="0px" viewBox="0 0 4831.3 1980.3" style="enable-background:new 0 0 4831.3 1980.3;" xml:space="preserve">
<style type="text/css">
	.st0{fill:#1244FB;}
	.st1{fill:#30303C;}
</style>
<g>
	<g transform="matrix( 1, 0, 0, 1, 0,0) ">
		<g>
			<g id="Layer0_0_FILL">
				<path class="st0" d="M1112,652.9c-0.4-0.1-0.8-0.1-1.2-0.1c-0.5,0-0.9,0-1.4,0.1c-2.5,0.4-4.5,1.5-5.9,3.5c-1.5,2-2,4.2-1.6,6.7      c0.4,2.4,1.6,4.4,3.6,5.8c1.1,0.8,2.2,1.3,3.4,1.6c0.2,0,0.4,0.1,0.6,0.1c1.3,0.2,2.7,0.4,4.1,0.6      c173.3,23.6,334.6,58.2,483.9,103.9l10.2,3.1l31.6-9c-7.4,3.5-14.5,7.5-21.4,12.1l-0.1,0c-8.9,5.9-17.2,12.5-25.2,19.9      c-3.8,3.6-7.5,7.3-11,11.2c-3.1,3.4-6.2,7-9.2,10.8c-0.5,0.7-1.1,1.3-1.6,2c-1.2,1.6-2.4,3.2-3.6,4.8c-1.3,1.7-2.5,3.5-3.8,5.2      c-1.5,2.2-3,4.4-4.4,6.5c-4.5,0.3-9,0.5-13.4,0.8c-5.4,0.3-10.8,0.6-16.1,1c-4.5,0.2-9,0.5-13.5,0.8c-0.4,0-0.8,0-1.1,0      c-101.8,5.6-255.9,10.6-462.3,14.8c-103.1,2.1-196.4,4.1-280,5.8c-0.2,0-0.3,0.1-0.5,0.1c-2.4,0.4-4.4,1.5-5.8,3.5      c-1.4,2-2,4.2-1.6,6.7c0.4,2.4,1.5,4.4,3.5,5.8c1.6,1.1,3.3,1.7,5.2,1.8c80.2,1.1,169.6,2.2,268,3.2      c197.2,2.2,343.4,5.2,438.8,8.8c7.7,0.3,15.4,0.6,23.1,1c6.6,0.2,13.1,0.5,19.7,0.8c3.9,0.2,7.9,0.3,11.8,0.5      c-0.6,2.5-1.2,5.1-1.8,7.7c-0.5,2.4-0.9,4.9-1.3,7.3c-0.6,3.8-1.2,7.7-1.6,11.5c-0.2,2.3-0.4,4.6-0.6,7c0,0.1,0,0.2,0,0.4      c-0.9,14.1-0.3,28.6,2,43.5c0,0.3,0.1,0.6,0.2,0.9c0.7,4.6,1.5,9.1,2.5,13.5l-7.9-12.4l-15.6,6c-21.7,7.6-58.5,19.4-110.5,35.6      c-32.4,10-54.3,17.1-65.7,21.2l-7,2.5c-1.6,0.6-3,1.6-4.1,3.1c-1.5,2-2,4.2-1.7,6.6c0.4,2.5,1.6,4.5,3.5,5.9      c1.6,1.2,3.4,1.8,5.4,1.7c2.3,0.5,27.8-5.4,76.7-17.7c52.6-13.3,89.6-22.3,111-26.9l21.9-3.3c12.6,37.1,35.7,67.8,69.1,92.3      c13.4,9.8,27.2,17.7,41.5,23.8c0.4,0.1,0.8,0.3,1.2,0.5c6.9,2.8,13.8,5.2,20.9,7.2l-31.9-2.4l-10.8,5.1      c-140.4,66.9-285.7,121.2-436.1,163.1c-12,3.3-21.8,6.5-29.4,9.6c-1.4,0.6-2.6,1.6-3.6,2.9c-1.5,2-2,4.2-1.6,6.6      c0.4,2.5,1.5,4.4,3.5,5.9c2,1.4,4.2,2,6.7,1.6c0.2-0.1,0.4-0.1,0.7-0.1c9.4-1.8,21.3-5,35.7-9.6l581.1-189.1      c40.5-13.2,72.3-35.6,95.5-67.3c31.9-43.6,43.7-92.1,35.5-145.5c-8.2-53.4-34.1-96-77.7-127.9c-26.6-19.5-66.9-33.4-121.1-41.8      l-600-92.3C1116.8,653.4,1114.3,653.1,1112,652.9 M1702.9,802.8c39-6,74.4,2.4,106.3,25.3c25.3,26,12.8,76.6-37.4,151.8      c-56.5,70.6-101,97.7-133.4,81.5c-21.2-15.8-36.7-35.2-46.4-58.1c-4.7-11.1-8-22.9-9.9-35.6c-0.6-4-1-8-1.3-12      c-0.5-5.4-0.6-10.7-0.5-15.9l0,0c0.2-7.2,0.9-14.4,2.2-21.4c0.8-4.1,1.8-8.1,3-12.1c0-0.1,0-0.3,0-0.4c0.4-1.3,0.8-2.5,1.2-3.8      c1.4-4.5,3.1-8.9,5-13.2l0.2-0.2c0-0.1,0-0.2,0.1-0.3c0.6-1.2,1.1-2.3,1.7-3.5c0.1-0.2,0.2-0.5,0.3-0.7      c4-8.2,8.9-16.1,14.6-23.9c0.6-0.8,1.2-1.5,1.8-2.3v0l0.1-0.2c3.8-5,7.8-9.6,12-14c0.1,0,0.1-0.1,0.2-0.1l0.2-0.2      c2.4-2.5,4.9-4.8,7.5-7.2c8.8-7.9,18.4-14.4,28.8-19.6c0.1-0.1,0.3-0.1,0.4-0.2C1672.5,809.8,1687,805.3,1702.9,802.8z"/>
			</g>
		</g>
	</g>
	<g transform="matrix( 0.738525390625, 0, 0, 0.738525390625, 631.1,924.35) ">
		<g>
			<g id="Layer0_1_FILL">
				<path class="st1" d="M2455.8-26.7c0-0.2,0.1-0.4,0.1-0.7c2-11.3,4-22.7,6-34H2387c-7.4,0.2-13.8,2.9-19.1,8.2      c-4,4.1-6.6,8.7-7.6,14l-0.1,0l-62,356.6l-29.7-378.8h-96.9c-7.5,0.1-14,2.9-19.3,8.2c-2.3,2.3-4.1,4.8-5.4,7.5      c-0.3,0.7-0.6,1.5-0.9,2.2c-8.3,18.8-17.9,40.6-28.8,65.4c-31.8,72.2-74.6,169.8-128.4,292.7l-20.8-350.5      c-0.6-6.6-3.3-12.3-8.1-17.2c-5.3-5.3-11.7-8-19.1-8.2h-73.3c1.4,22.4,3.1,50.2,5.2,83.2c5.7,88.6,14,215.4,25,380.5      c0.1,1.2,0.2,2.5,0.2,3.8c0.8,6,3.4,11.3,8,15.9c1,1,2.1,2,3.2,2.9c4.6,3.5,9.9,5.3,16,5.4h109.3l2.4-5.4l145.8-328.1l0.1-0.2      c0.2,2,0.3,4.1,0.5,6.2l26,304.4c1,5.7,3.6,10.6,7.8,14.8c1,1,2.1,2,3.2,2.9c4.6,3.5,9.9,5.3,15.9,5.4h139.9L2446,29.1      c0-0.2,0.1-0.4,0.1-0.6c0,0,0-0.1,0-0.2c0-0.1,0-0.1,0.1-0.2c0.1-0.8,0.3-1.5,0.4-2.3l8.8-50c0.1-0.5,0.2-1,0.2-1.4      c0,0,0-0.1,0-0.1c0-0.1,0-0.1,0.1-0.1c0-0.1,0-0.2,0-0.2L2455.8-26.7 M2693.7,29.6c-9.2-0.4-18.5-0.5-27.8-0.1      c-34.3,2.1-63.7,8.9-88.2,20.4c-40.5,18.9-67.4,51.4-80.7,97.5c-0.5,1.8-0.9,3.2-1.1,4.1c-8.3,43.9-16.5,87.6-24.8,131      c-0.4,2.1-0.8,4.2-1.2,6.3c-2,11.8-2.6,23.3-1.8,34.5c0.1,0.9,0.2,1.8,0.2,2.7c0.6,5.7,1.5,11.1,2.7,16.4      c8.1,37.3,29,62.1,62.6,74.2c9,3.2,18.6,6,28.9,8.2c34.4,6.6,70.1,7.2,107.1,1.9c3.4-0.6,6.7-1.2,10-1.9      c36.6-7.8,65.5-23.3,86.8-46.4c16.6-18,28.9-40.3,37.2-67h-89.4c-7.4,0.2-13.7,2.9-18.9,8.2c-0.2,0.2-0.5,0.5-0.7,0.8      c-0.1,0.1-0.2,0.2-0.3,0.3c-0.2,0.2-0.4,0.5-0.6,0.8c-7.3,7.9-16.4,13.8-27.5,17.9c-9.8,3.8-23.5,6-41,6.4      c-15.2,0.4-27.3-2.2-36.5-7.6c-0.6-0.4-1.2-0.7-1.8-1.1c-6.5-4.1-11.4-9.8-14.8-17c-1.3-2.8-2.4-5.7-3.2-8.8      c-2.4-8.4-2.9-17.8-1.8-28.1c1.4-7.9,2.9-15.8,4.4-23.8H2814c1.4-11.8,3.2-23.6,5.4-35.3c3-16.2,5.8-32.6,8.4-49.2      c0.7-4.2,1.2-8.5,1.8-12.8c1.9-16.7,0.8-33.3-3.5-49.7c-2.6-9.1-6.2-17.1-10.9-24.2C2791.6,52.1,2751.1,32.6,2693.7,29.6       M2673.4,115.1c0.3,0,0.7,0,1,0c24,0.4,40.7,7.8,50.3,22.4c4.4,6.7,6.1,15.6,5,26.5c-1.3,12.4-2.7,24.6-4.3,36.8h-141.9      c2.4-11.4,4.9-22.9,7.4-34.3c1.8-8,4.9-15.2,9.1-21.6c12.7-19.1,34.4-29,65.3-29.9C2668,115.1,2670.7,115.1,2673.4,115.1       M3021-32.1c0-7.7-2.7-14.3-8.2-19.8c-5.3-5.3-11.6-8-19-8.2h-61.9l-33.6,184.8c-0.7,4.6-1.5,9.1-2.4,13.7      c-1.5,8.1-2.9,16.1-4.4,24.2c-0.1,0.4-0.1,0.7-0.2,1.1l-1.9,10.1c-1.2,6.5-2.4,12.9-3.6,19.4h0c-0.9,4.5-1.8,9-2.7,13.5      l-7.8,41.9c-0.1,0.4-0.1,0.8-0.2,1.2c-2.1,10.9-4.1,21.9-6.2,32.8c-0.4,2.1-0.8,4.2-1.2,6.3c-2,11.8-2.6,23.3-1.8,34.5      c0.1,0.9,0.1,1.8,0.2,2.7c0.6,5.7,1.5,11.1,2.6,16.4c8.1,37.3,29,62.1,62.7,74.2c1.7,0.6,3.5,1.2,5.2,1.8      c7.5,2.5,15.3,4.6,23.6,6.5c34.4,6.6,70.1,7.2,107.1,1.9c3.4-0.6,6.7-1.2,10-1.9c36.6-7.8,65.6-23.3,86.9-46.4      c25.7-27.9,41.4-66.3,46.9-115.2c1.5-13.2,3.4-26.2,5.8-39.2c3-16.2,5.8-32.6,8.4-49.2c0.7-4.2,1.2-8.5,1.8-12.8      c1.9-16.7,0.8-33.3-3.5-49.7c-2.6-9.1-6.3-17.1-10.9-24.2c-23.6-36.1-64.1-55.6-121.5-58.6c-9.2-0.4-18.5-0.5-27.8-0.1      c-15,0.9-29.1,2.8-42.2,5.5l-16.1,21.7l3.6-18.8c0.8-5,1.7-10,2.6-15c0.5-2.7,1-5.5,1.5-8.1c0.3-1.4,0.5-2.8,0.8-4.1l1-4.9      c0-0.2,0.1-0.5,0.2-0.7l5.8-33.3C3020.9-29.6,3021-30.8,3021-32.1 M2989.1,164.5c1.9-7.2,4.7-13.7,8.6-19.6      c12.7-19.1,34.4-29,65.2-29.9c2.7,0,5.3,0,8,0c0.3,0,0.7,0,1,0c24,0.4,40.8,7.8,50.4,22.4c4.4,6.7,6.1,15.6,5,26.5      c-4.3,41.1-10.3,81.1-18.1,120c-5.6,27.9-20.7,46.4-45.3,55.4c-9.8,3.8-23.5,6-41,6.4c-15.2,0.4-27.3-2.2-36.5-7.6      c-0.6-0.4-1.2-0.7-1.8-1.1c-6.5-4.1-11.4-9.8-14.8-17c-1.3-2.8-2.4-5.7-3.2-8.8c-2.4-8.4-2.9-17.8-1.8-28.1      c0.9-5.1,1.8-10.1,2.8-15.1c1.5-7.9,3-15.8,4.5-23.7c0.2-0.8,0.3-1.6,0.5-2.4l9.2-44.9c0.2-1,0.4-1.9,0.6-2.9h0.2l1-5.8      c1.6-7.3,3.2-14.6,4.8-21.8C2988.8,165.8,2989,165.1,2989.1,164.5 M3662.1,42c0.1-0.1,0.2-0.3,0.4-0.4h-98      c-7.4,0.2-13.7,3-19,8.3c-0.6,0.6-1.1,1.1-1.6,1.8c-0.7,1-1.5,1.9-2.2,2.9c-9.2,12.2-30.2,40.5-63.1,84.9l-46.5,62.9l4.3-18.8      c-18.8,0-37.6,0-56.4,0c0-0.2,0-0.4,0-0.6c0-0.1,0-0.3,0-0.4c0-0.7,0-1.3,0-2c5.1-28.4,10.2-56.8,15.2-85.3      c0-0.1,0.1-0.3,0.1-0.4l0.3-1.8c3.8-21.6,7.6-43.1,11.3-64.7c0,0,0-0.1,0-0.2c0-0.1,0-0.1,0.1-0.2c3.1-17.9,6.3-35.8,9.5-53.7      c0-0.2,0-0.3,0.1-0.4l0.1-0.7c0-0.2,0.1-0.4,0.1-0.7c2-11.3,4-22.7,6-34h-74.9c-7.4,0.2-13.8,2.9-19.2,8.2      c-4,4.1-6.6,8.7-7.6,14l-0.1,0l-65.6,377c-1.4,7.9-2.8,15.8-4.2,23.7c-0.9,5.1-1.8,10.2-2.8,15.2l-9.1,53.6h74.3      c7.4-0.2,13.8-2.9,19.1-8.2c4-4,6.6-8.6,7.7-13.8l0.1-0.5c0-0.2,0.1-0.4,0.1-0.6l0.1-0.6c8.2-46.6,16.4-93.2,24.6-139.8      c20.3,0,40.6,0,60.9,0c0.3,0,0.7,0,1,0c1.9,5.2,3.8,10.5,5.7,15.7c9.3,26,18.7,52.1,28,78.3c4.4,12.4,8.8,24.8,13.2,37.2      c0.1,0.4,0.2,0.7,0.4,1.1c0.9,2.6,1.8,5.2,2.8,7.8c0.4,1.2,0.8,2.5,1.3,3.7c0.2,0.7,0.5,1.5,0.8,2.2c1.3,3.4,3.4,6.5,6.2,9.2      c5.4,5.4,11.8,8.1,19.2,8.2h87.4l-76-193.6c25-34.2,50.2-68.2,75.5-102C3615,103.6,3638.4,72.7,3662.1,42 M3991.1,111.5      c-2.6-9.1-6.3-17.2-10.9-24.3c-23.6-36.2-64.3-55.7-121.9-58.7c-1.2-0.1-2.4-0.1-3.6-0.2h-24.2c-34.4,2.1-63.9,8.9-88.4,20.4      c-40.6,19-67.5,51.6-80.8,97.8c-0.5,1.8-0.9,3.2-1.1,4.1c-8.3,44-16.6,87.8-24.9,131.4c-0.4,2.1-0.8,4.2-1.2,6.4      c-2,11.8-2.6,23.4-1.8,34.6c0.1,0.9,0.2,1.8,0.2,2.7c0.6,5.7,1.5,11.2,2.6,16.4c8.1,37.4,29.1,62.2,62.9,74.4      c9,3.3,18.7,6,28.9,8.3c34.5,6.6,70.3,7.2,107.4,1.9c41.5-7,73.9-23.2,97.1-48.4c25.8-28,41.4-66.5,46.9-115.5      c1.5-13.2,3.5-26.3,5.9-39.3c3-16.2,5.9-32.7,8.5-49.4c0.7-4.2,1.2-8.5,1.8-12.9C3996.5,144.6,3995.3,128,3991.1,111.5       M3889.4,136.7c4.5,6.8,6.1,15.6,5,26.6c-4.3,41.2-10.3,81.3-18.1,120.3c-5.6,28-20.7,46.5-45.4,55.5c-9.8,3.8-23.5,6-41.1,6.4      c-15.2,0.4-27.4-2.2-36.6-7.6c-0.6-0.4-1.2-0.7-1.8-1.1c-6.5-4.1-11.5-9.8-14.8-17c-1.3-2.8-2.4-5.7-3.2-8.8      c-2.4-8.4-3-17.8-1.8-28.2c7.1-39.3,15-78.3,23.7-116.9c1.8-8,4.9-15.3,9.1-21.7c12.7-19.1,34.5-29.1,65.5-29.9c2.7,0,5.3,0,8,0      c0.3,0,0.7,0,1,0C3863,114.6,3879.8,122.1,3889.4,136.7 M4288.4,30c0-0.1,0-0.1,0-0.2c-34.5-3.1-68.9-1.9-103.4,3.4      c-4.8,0.8-9.6,1.7-14.2,2.7c-16.4,3.6-31.2,9.1-44.2,16.4c-38,21.3-62.4,56.5-73.2,105.6c-8.1,36.4-15.3,73.7-21.6,112.1      c-0.2,1-0.3,1.9-0.4,2.9c-0.4,2.4-0.8,4.9-1.2,7.3c-5.5,31.7-11.1,63.1-16.8,94.4c-1.5,8.1-2.9,16.1-4.4,24.1      c-0.1,0.4-0.1,0.7-0.2,1.1l-1.9,10.1c-0.8,4.4-1.6,8.7-2.5,13.1c-0.4,2.1-0.8,4.2-1.2,6.3h0.1l-0.2,1h74.3      c7.4-0.2,13.7-2.9,19-8.2c4-4,6.5-8.5,7.6-13.7l0-0.4c0.1-0.5,0.1-0.9,0.2-1.3c0-0.2,0-0.3,0.1-0.5c0.7-4.2,1.5-8.5,2.2-12.7      c0.2-1,0.3-2,0.5-2.9c4.6-26.6,9-53.2,13.4-79.8c2.9-15.8,5.2-29.2,6.9-40.1c6.3-39.2,14.7-76.3,25.1-111.3      c2.4-7.9,6-14.9,10.9-21c5.2-6.5,11.7-11.8,19.4-15.9c10.9-5.2,28.9-8.4,53.9-9.6c4.4-0.2,9-0.4,13.9-0.4      c7.6-0.1,14-2.9,19.4-8.3c3.8-3.8,6.2-8.1,7.4-12.9c0.1-0.6,0.2-1.2,0.3-1.8c0.1-0.5,0.2-0.9,0.2-1.3      C4281.5,68.9,4284.9,49.5,4288.4,30 M4641.3,95c-0.6-1.1-1.2-2.1-1.8-3.2c-15.6-26.6-39.6-44.6-71.9-53.8      c-46.3-13.2-94.4-13.2-144.2-0.1c-13.8,3.7-26.2,8.7-37.2,15.1c-37.8,22-61.1,58.7-70.1,110.1c-4.4,24.9-8.8,50.3-13.1,76.2      c-8.7,50.7-17.4,101.5-26.1,152.2c-1.9,11.1-3.9,22.1-5.8,33.2c-6.7,38.2-13.6,76.2-20.6,114.1h74c7.4-0.2,13.8-2.9,19.1-8.2      c4-4,6.5-8.6,7.6-13.8c0-0.2,0.1-0.3,0.1-0.5c0-0.1,0-0.2,0.1-0.3c0-0.2,0.1-0.5,0.1-0.7c2.2-12.1,4.4-24.2,6.5-36.4      c0.2-1.1,0.4-2.1,0.6-3.2l9-50.9c0-0.1,0-0.1,0-0.2l6.9-42.8l3.2,25.6c4.9,3,10.2,5.8,16.1,8.3c8.9,3.7,18.4,6.7,28.4,8.8      c7.5,1.6,15.2,2.8,23.4,3.6c0.2,0,0.4,0.1,0.5,0.1c0.2,0,0.4,0,0.6,0c0.3,0,0.7,0,1,0c0,0,0.1,0.1,0.1,0.1      c12.2,1.1,24.5,1.2,36.9,0.2c0.9-0.1,1.9-0.1,2.8-0.2c2.7-0.3,5.5-0.6,8.2-0.9c0,0,0-0.1,0-0.1c0.8-0.1,1.7-0.2,2.5-0.2      c4.6-0.7,9.1-1.5,13.8-2.5c13.3-2.9,26.8-7.1,40.2-12.8c25-10.6,43.9-27.5,56.7-50.8c10.6-19.1,18.1-41.3,22.5-66.7      c1.1-6.4,2.3-12.7,3.4-19.1c0.1-0.7,0.2-1.3,0.4-2l2.5-14.9c2.1-11.9,4.1-23.9,6.1-35.8l1.9-11.2c0.1-0.5,0.1-0.9,0.2-1.4      c0.6-3.7,1.2-7.3,1.8-11c6.6-44.4,6.5-75.2-0.5-92.3C4645.1,102.6,4643.3,98.7,4641.3,95 M4556,179.8l-0.6,3.4      c-4.9,28.7-9.8,57.3-14.8,86c-0.4,2-0.9,4-1.3,6c-5.4,25.2-16.3,43.9-32.6,56.1c-2.6,1.9-5.3,3.6-8.1,5.2      c-1.4,0.8-2.9,1.5-4.3,2.2c-6,2.8-12.6,4.9-19.7,6.2c-6.7,1.2-13.8,1.8-21.4,1.7c-47.3,1.4-68-19.7-62-63.3      c7.7-36.9,15.3-74.5,22.6-112.7c2.6-13.2,7.7-24.3,15.4-33.3c12.5-14.6,31.5-22.6,57-24.1c4.7,0,9.3,0,14,0c0.3,0,0.7,0,1,0      c4.3,0.2,8.3,0.6,12.1,1.1C4547.3,119.7,4561.6,141.4,4556,179.8z"/>
			</g>
		</g>
	</g>
</g>
</svg>